<?xml version="1.0" standalone="no"?>
<!DOCTYPE svg PUBLIC "-//W3C//DTD SVG 20010904//EN"
 "http://www.w3.org/TR/2001/REC-SVG-20010904/DTD/svg10.dtd">
<svg version="1.0" xmlns="http://www.w3.org/2000/svg"
 width="817.000000pt" height="816.000000pt" viewBox="0 0 817.000000 816.000000"
 preserveAspectRatio="xMidYMid meet">

<g transform="translate(0.000000,816.000000) scale(0.100000,-0.100000)"
fill="#000000" stroke="none">
<path d="M2961 4127 c-145 -446 -266 -818 -268 -824 -4 -10 20 -13 99 -13
l103 0 65 208 65 207 327 3 327 2 51 -162 c28 -90 58 -184 66 -210 l16 -48
110 0 c84 0 109 3 105 13 -2 6 -123 378 -268 825 l-264 812 -135 0 -135 0
-264 -813z m528 202 c72 -235 131 -432 131 -438 0 -8 -75 -11 -263 -11 -145 0
-266 2 -269 5 -3 3 56 201 130 440 75 239 137 434 138 432 1 -1 61 -194 133
-428z"/>
<path d="M4095 4908 c9 -52 225 -1596 225 -1608 0 -7 47 -10 142 -8 l143 3 91
595 c50 327 93 604 95 615 2 11 44 -244 93 -565 48 -322 91 -600 93 -617 l6
-33 138 0 c77 0 139 3 139 6 0 10 240 1586 246 1617 l6 27 -99 0 -99 0 -92
-672 c-52 -370 -97 -683 -100 -696 -5 -15 -40 191 -96 555 -48 318 -90 588
-93 601 -5 21 -9 22 -134 22 -72 0 -129 -4 -129 -9 0 -15 -190 -1195 -193
-1198 -2 -1 -40 300 -85 670 -46 370 -86 684 -88 700 l-6 27 -104 0 -105 0 6
-32z"/>
<path d="M1867 4428 l-458 -283 3 -104 3 -104 453 -284 c250 -156 455 -283
457 -281 2 2 26 35 54 73 44 60 49 72 36 81 -8 6 -197 123 -419 260 -223 137
-405 251 -405 254 -1 3 186 120 415 260 228 140 417 257 419 260 5 8 -84 150
-94 150 -3 0 -212 -127 -464 -282z"/>
<path d="M5793 4663 c-16 -27 -37 -60 -46 -74 l-17 -26 420 -259 c231 -142
420 -261 420 -264 -1 -3 -190 -121 -420 -263 l-420 -259 31 -43 c17 -24 43
-58 58 -75 l26 -30 452 282 452 283 1 106 0 107 -455 281 c-251 154 -459 281
-464 281 -4 0 -21 -21 -38 -47z"/>
</g>
</svg>
